<svg width="295" height="213" viewBox="0 0 295 213" fill="none" xmlns="http://www.w3.org/2000/svg">
<g filter="url(#filter0_d_167_1559)">
<g clip-path="url(#clip0_167_1559)">
<path d="M235.55 78.3676C265.473 109.677 292.058 150.257 273.652 170.412C255.041 190.594 191.5 190.508 133.156 171.417C74.7504 152.168 21.3355 113.942 22.8435 82.6397C24.6186 51.4667 81.3166 27.217 126.43 26.1756C171.749 25.106 205.421 47.0868 235.55 78.3676Z" fill="#09BC8A" fill-opacity="0.5"/>
</g>
<g clip-path="url(#clip1_167_1559)">
<path d="M184.205 163.234C182.553 161.215 180.405 159.801 177.794 159.391C175.517 159.033 173.216 159.272 170.937 159.441L142.117 161.569C139.649 161.751 137.423 164.049 137.707 166.607C137.989 169.143 140.096 171.216 142.742 171.02C151.184 170.397 159.626 169.773 168.068 169.149C170.058 169.002 172.048 168.835 174.04 168.71C174.488 168.682 174.934 168.676 175.382 168.651C175.49 168.645 175.568 168.639 175.623 168.633C175.637 168.637 175.649 168.64 175.667 168.643C175.905 168.692 176.147 168.72 176.385 168.766C176.303 168.774 176.547 168.904 176.668 168.946C176.686 168.977 176.724 169.031 176.788 169.115C176.878 169.26 177.146 169.702 177.155 169.687C177.571 170.566 177.927 171.474 178.219 172.402C178.906 174.447 179.055 174.875 179.263 176.822C179.526 179.282 181.684 181.526 184.298 181.235C186.764 180.961 188.99 178.836 188.708 176.198C188.233 171.752 187.12 166.796 184.205 163.234Z" fill="#E6E6E6"/>
<path d="M144.81 176.548C144.051 173.3 143.303 170.049 142.533 166.803C141.753 163.51 140.407 160.537 137.673 158.523C136.943 157.985 136.19 157.487 135.433 156.991C135.167 156.817 134.902 156.642 134.638 156.464C134.623 156.453 134.613 156.446 134.599 156.437C134.57 156.415 134.535 156.389 134.488 156.354C133.348 155.512 132.242 154.626 131.182 153.677C130.24 152.834 129.335 151.95 128.465 151.025C128.247 150.794 128.033 150.561 127.82 150.325C127.784 150.285 127.586 150.062 127.457 149.916C127.335 149.77 127.114 149.507 127.076 149.461C126.826 149.152 126.579 148.84 126.337 148.524C124.683 146.369 123.224 144.072 121.974 141.659C121.85 141.42 121.728 141.179 121.609 140.937C121.577 140.862 121.535 140.767 121.479 140.64C121.22 140.053 120.962 139.466 120.722 138.87C120.211 137.604 119.759 136.315 119.365 135.004C119.171 134.356 118.991 133.704 118.826 133.047C118.741 132.71 118.66 132.371 118.583 132.032C118.57 131.975 118.493 131.609 118.448 131.402C118.411 131.193 118.343 130.824 118.333 130.767C118.276 130.423 118.222 130.079 118.173 129.734C118.061 128.959 117.968 128.18 117.895 127.399C117.767 126.011 117.7 124.619 117.694 123.224C117.692 122.439 117.71 121.656 117.744 120.872C117.746 120.824 117.748 120.786 117.749 120.751C117.752 120.716 117.756 120.677 117.76 120.627C117.795 120.193 117.833 119.76 117.88 119.327C118.056 117.684 118.318 116.051 118.665 114.436C118.829 113.672 119.013 112.913 119.215 112.158C119.305 111.823 119.399 111.489 119.496 111.157C119.49 111.178 119.786 110.243 119.789 110.212C120.983 106.772 123.096 103.569 122.848 99.768C122.68 97.1945 120.342 94.8732 117.801 95.1606C116.533 95.2925 115.366 95.9116 114.546 96.8876C113.725 97.8636 113.316 99.1201 113.403 100.392C113.407 100.45 113.41 100.5 113.413 100.547C113.395 100.629 113.379 100.697 113.365 100.758C113.129 101.376 112.829 101.969 112.564 102.574C111.841 104.23 111.242 105.932 110.68 107.655C109.76 110.461 109.104 113.347 108.722 116.276C107.894 122.693 108.227 129.206 109.706 135.504C112.275 146.551 119.02 156.842 127.89 163.473C128.66 164.048 129.446 164.602 130.238 165.142C130.566 165.366 130.896 165.585 131.228 165.802C131.384 165.905 132.035 166.352 131.748 166.134C132.366 166.595 132.629 166.83 132.803 167.188C132.831 167.271 132.868 167.385 132.919 167.54C133.052 167.948 133.18 168.355 133.291 168.77C134.265 172.4 135.02 176.105 135.875 179.766C136.463 182.281 139.701 183.73 141.912 182.818C144.484 181.757 145.439 179.243 144.81 176.548Z" fill="#E6E6E6"/>
<path d="M186.018 183.404C184.035 183.54 182.079 182.884 180.579 181.579C179.079 180.274 178.157 178.427 178.016 176.443L177.66 171.052C172.062 172.057 152.739 173.187 147.144 172.663L147.513 178.243C147.629 180.227 146.957 182.176 145.643 183.666C144.328 185.156 142.479 186.065 140.497 186.196C138.515 186.327 136.562 185.669 135.063 184.365C133.564 183.061 132.641 181.217 132.495 179.235L131.771 168.281C123.998 164.608 117.344 158.926 112.497 151.822C107.65 144.718 104.785 136.448 104.198 127.866C103.226 113.149 108.983 98.9798 119.996 88.9912C127.154 82.4763 136.096 78.2518 145.673 76.8601C146.972 76.6712 148.284 76.5324 149.57 76.4474C154.101 76.1478 174.592 75.4968 179.819 76.6344L190.747 64.2478C190.908 64.0634 191.119 63.931 191.355 63.8674C191.591 63.8039 191.841 63.8122 192.072 63.8912C192.305 63.9665 192.51 64.1105 192.659 64.3042C192.809 64.498 192.896 64.7325 192.91 64.9769L193.032 66.8233L195.161 64.4157C195.321 64.2312 195.532 64.0986 195.768 64.035C196.004 63.9714 196.254 63.9797 196.485 64.0588C196.718 64.134 196.923 64.278 197.072 64.4719C197.222 64.6657 197.31 64.9003 197.324 65.1448L198.688 85.7789C204.907 90.6853 209.82 97.051 212.993 104.312C216.166 111.573 217.499 119.504 216.876 127.404C216.253 135.303 213.692 142.927 209.42 149.599C205.148 156.271 199.297 161.785 192.386 165.654L193.034 175.45C193.155 177.435 192.485 179.387 191.169 180.878C189.854 182.37 188.002 183.278 186.018 183.404ZM178.206 170.343L178.607 176.404C178.742 178.229 179.593 179.927 180.974 181.127C182.355 182.328 184.154 182.933 185.979 182.813C187.804 182.692 189.507 181.855 190.718 180.483C191.929 179.111 192.549 177.316 192.443 175.489L191.771 165.319L191.934 165.228C199.69 160.897 206.094 154.5 210.435 146.747C215.966 136.854 217.775 125.306 215.534 114.193C213.293 103.08 207.151 93.137 198.219 86.163L198.115 86.0813L196.733 65.1838C196.727 65.0567 196.682 64.9346 196.604 64.8339C196.526 64.7332 196.42 64.6588 196.298 64.6206C196.177 64.5781 196.046 64.5731 195.923 64.6063C195.799 64.6396 195.688 64.7095 195.605 64.8068L192.536 68.2788L192.32 65.0159C192.314 64.8888 192.269 64.7666 192.191 64.6659C192.113 64.5652 192.006 64.4908 191.885 64.4527C191.764 64.4102 191.633 64.4054 191.509 64.4388C191.385 64.4722 191.274 64.5423 191.19 64.64L180.028 77.2917L179.854 77.2497C174.987 76.0715 154.175 76.7362 149.609 77.0381C148.338 77.1221 147.042 77.2593 145.758 77.446C136.298 78.8207 127.465 82.9939 120.393 89.4297C109.515 99.2963 103.828 113.292 104.789 127.827C105.371 136.333 108.218 144.528 113.035 151.561C117.852 158.593 124.463 164.207 132.181 167.819L132.339 167.894L133.086 179.196C133.222 181.021 134.073 182.719 135.454 183.919C136.834 185.119 138.633 185.725 140.458 185.604C142.283 185.484 143.986 184.646 145.197 183.275C146.408 181.903 147.028 180.109 146.923 178.282L146.507 171.995L146.861 172.038C151.898 172.645 172.856 171.408 177.875 170.409L178.206 170.343Z" fill="#3F3D56"/>
<path d="M136.68 44.9963L104.644 56.9861C103.625 57.3687 102.8 58.1404 102.349 59.1316C101.899 60.1228 101.86 61.2525 102.241 62.2724C102.623 63.2924 103.393 64.1192 104.383 64.5713C105.373 65.0233 106.502 65.0636 107.522 64.6833L135.556 54.1891L136.143 53.9693C136.06 50.8716 136.698 47.7971 138.007 44.9887C137.815 44.9169 137.612 44.8782 137.407 44.8741C137.159 44.8665 136.912 44.9081 136.68 44.9963Z" fill="#09BC8A"/>
<path d="M107.095 66.8162C106.661 66.8438 106.23 66.7342 105.861 66.503C105.493 66.2718 105.206 65.9306 105.042 65.5277L102.59 59.4913C102.488 59.2392 102.436 58.9694 102.438 58.6973C102.44 58.4252 102.495 58.1561 102.601 57.9055C102.707 57.6548 102.861 57.4274 103.054 57.2363C103.248 57.0452 103.477 56.8942 103.729 56.7918L129.748 46.2113C130 46.1088 130.27 46.057 130.542 46.0588C130.814 46.0606 131.082 46.116 131.333 46.2218C131.584 46.3276 131.811 46.4817 132.002 46.6754C132.193 46.869 132.344 47.0985 132.446 47.3505L134.898 53.3869C135.102 53.8832 135.104 54.4394 134.905 54.9375C134.706 55.4357 134.321 55.8367 133.831 56.0557C133.807 56.0665 133.783 56.0769 133.759 56.0867L107.74 66.6669C107.535 66.7509 107.317 66.8013 107.095 66.8162Z" fill="#2F2E41"/>
<path d="M154.883 32.7848C149.514 33.1418 144.495 35.5753 140.888 39.5703C137.281 43.5652 135.368 48.808 135.556 54.1891C135.564 54.3991 135.575 54.612 135.589 54.8246C135.86 58.9136 137.336 62.8306 139.831 66.0803C142.326 69.33 145.727 71.7666 149.606 73.0818C153.485 74.3969 157.666 74.5317 161.621 73.4691C165.576 72.4064 169.127 70.1941 171.826 67.1117C174.524 64.0294 176.248 60.2156 176.78 56.1525C177.312 52.0895 176.628 47.9597 174.815 44.2854C173.001 40.6111 170.14 37.5573 166.592 35.5102C163.044 33.4631 158.97 32.5147 154.883 32.7848ZM157.578 73.5421C152.256 73.8883 147.014 72.1079 143.003 68.5915C138.991 65.0751 136.537 60.11 136.18 54.7856C136.162 54.5109 136.149 54.2388 136.143 53.9693C136.043 50.0247 137.104 46.1377 139.194 42.7917C141.284 39.4457 144.31 36.7883 147.897 35.1499C151.485 33.5115 155.474 32.9644 159.37 33.5766C163.265 34.1888 166.895 35.9334 169.808 38.5933C172.721 41.2532 174.788 44.7112 175.753 48.5373C176.718 52.3633 176.537 56.3886 175.234 60.1126C173.931 63.8366 171.562 67.0951 168.423 69.4828C165.284 71.8705 161.512 73.2821 157.578 73.5421Z" fill="#3F3D56"/>
<path d="M173.664 52.3076C173.969 56.929 172.428 61.4825 169.378 64.9662C166.328 68.45 162.02 70.5787 157.402 70.884C152.783 71.1893 148.233 69.6463 144.751 66.5943C141.269 63.5423 139.142 59.2314 138.836 54.61C138.8 54.0577 138.79 53.5125 138.805 52.9717C138.93 48.4837 140.777 44.2165 143.963 41.0559C147.15 37.8953 151.43 36.0843 155.916 35.9988C160.402 35.9134 164.749 37.56 168.054 40.597C171.359 43.6339 173.368 47.8277 173.664 52.3076Z" fill="#E6E6E6"/>
<path d="M161.512 54.2737C161.054 53.7463 160.469 53.3432 159.813 53.1016C159.006 52.8222 158.177 52.6091 157.334 52.4646L157.021 47.7214C158.308 47.8294 159.539 48.2957 160.575 49.0675L161.402 46.9512C160.816 46.4945 160.155 46.1437 159.448 45.9146C158.664 45.6559 157.85 45.5032 157.026 45.4607L156.867 43.0566L154.638 43.2039L154.799 45.6317C153.945 45.7853 153.133 46.119 152.418 46.6107C151.772 47.0535 151.242 47.6462 150.875 48.3383C150.525 49.0131 150.371 49.7723 150.43 50.5302C150.446 51.3546 150.738 52.1499 151.258 52.7891C151.735 53.3409 152.344 53.762 153.029 54.0129C153.85 54.3012 154.693 54.5203 155.55 54.6679L155.851 59.2132C154.34 59.1991 152.869 58.7217 151.637 57.8454L150.811 59.9646C151.5 60.4621 152.271 60.8348 153.089 61.0658C153.985 61.3215 154.913 61.4518 155.845 61.4532L156.002 63.8366L158.231 63.6893L158.07 61.2616C159.299 61.0444 160.425 60.4351 161.278 59.5248C161.654 59.1136 161.94 58.6289 162.118 58.1014C162.297 57.5739 162.364 57.015 162.315 56.4602C162.299 55.6621 162.017 54.8922 161.512 54.2737ZM155.38 52.0895C154.826 51.9607 154.304 51.723 153.843 51.3902C153.659 51.2475 153.51 51.0659 153.405 50.8584C153.3 50.651 153.242 50.4228 153.236 50.1904C153.185 49.6655 153.344 49.1418 153.679 48.7343C154.051 48.3055 154.549 48.0039 155.101 47.872L155.38 52.0895ZM159.116 58.1549C158.765 58.5662 158.291 58.8543 157.765 58.9769L157.506 55.0666C158.024 55.1695 158.516 55.3761 158.952 55.674C159.118 55.7979 159.254 55.9576 159.35 56.1413C159.445 56.325 159.499 56.5279 159.505 56.735C159.559 57.2405 159.42 57.7478 159.116 58.1549Z" fill="#09BC8A"/>
<path d="M109.698 91.7657C109.241 91.7951 108.788 91.673 108.408 91.4184C108.028 91.1638 107.743 90.7908 107.596 90.3574L106.205 86.2164C106.03 85.6959 106.069 85.1275 106.313 84.6358C106.557 84.1441 106.986 83.7694 107.506 83.5938L141.998 71.9905C142.519 71.8172 143.087 71.8572 143.578 72.1019C144.069 72.3465 144.443 72.7759 144.619 73.2961L145.798 76.8044L145.622 76.8298C136.665 78.1255 128.266 81.9614 121.42 87.8838L121.37 87.9119L110.217 91.6629C110.049 91.7194 109.874 91.7539 109.698 91.7657Z" fill="#2F2E41"/>
<path d="M105.26 112.968C101.101 112.631 97.0643 111.401 93.4238 109.362C91.6203 108.353 89.9328 107.148 88.3917 105.771C86.8707 104.411 85.3982 102.848 84.5643 100.958C83.7668 99.2105 83.6706 97.2237 84.2956 95.4078C84.9113 93.6034 86.2169 92.1169 87.9262 91.2743C89.6474 90.452 91.7783 90.2353 93.5498 90.8942C94.3935 91.1996 95.1407 91.7241 95.7148 92.4139C95.9815 92.7318 96.1875 93.0961 96.3225 93.4885C96.4472 93.844 96.4816 94.2249 96.4226 94.597C96.3459 94.9696 96.1905 95.3215 95.9667 95.6291C95.743 95.9367 95.4561 96.1929 95.1253 96.3804C94.3988 96.8162 93.6005 97.1187 92.7677 97.2738C91.9312 97.4447 90.7255 97.6297 90.002 96.9965C89.8534 96.8716 89.7328 96.7168 89.6481 96.5421C89.588 96.408 89.5608 96.2615 89.5687 96.1148C89.5631 96.1796 89.6004 95.9726 89.5981 95.9809C89.5893 96.0117 89.5477 96.0882 89.6063 95.9711C89.6245 95.9326 89.6451 95.8952 89.668 95.8593C89.6475 95.8898 89.6015 95.9415 89.6839 95.8526C89.7514 95.7682 89.841 95.7043 89.9428 95.6681C89.9828 95.6535 90.0236 95.6412 90.0639 95.6273C90.1661 95.592 89.9602 95.6358 90.0665 95.6253C90.1075 95.6213 90.1492 95.6195 90.19 95.615C90.2942 95.6034 90.0851 95.5933 90.1869 95.6118C90.2264 95.6191 90.2655 95.6261 90.3046 95.6356C90.3896 95.6564 90.2416 95.5784 90.3024 95.64C90.3736 95.7123 90.228 95.5701 90.3081 95.6393C90.3479 95.6736 90.3857 95.7102 90.4213 95.7488C90.5602 95.8689 90.7407 95.9295 90.9238 95.9174C91.107 95.9053 91.278 95.8215 91.3998 95.6841C91.5169 95.5439 91.5756 95.364 91.5635 95.1816C91.5515 94.9993 91.4697 94.8286 91.335 94.7051C90.5969 93.9039 89.2632 94.2021 88.6203 94.9629C87.8005 95.9333 88.2446 97.3559 89.1533 98.0951C90.1821 98.9321 91.5589 98.904 92.7956 98.6704C93.8425 98.4998 94.8501 98.1416 95.7699 97.613C96.6837 97.0861 97.3696 96.2387 97.6949 95.2348C97.8364 94.7012 97.863 94.1435 97.773 93.5988C97.683 93.0541 97.4784 92.5346 97.1728 92.0749C95.9352 90.077 93.5858 89.166 91.3208 89.1311C90.1549 89.1168 88.9978 89.3341 87.9164 89.7703C86.835 90.2065 85.8508 90.853 85.0208 91.6723C83.425 93.313 82.5205 95.5048 82.4942 97.7942C82.4537 100.169 83.521 102.402 84.982 104.219C86.5076 106.063 88.2895 107.679 90.2733 109.017C94.1573 111.72 98.6198 113.477 103.304 114.145C103.86 114.222 104.419 114.283 104.98 114.327C105.16 114.358 105.344 114.32 105.496 114.219C105.649 114.119 105.757 113.965 105.799 113.787C105.835 113.607 105.798 113.42 105.697 113.267C105.596 113.113 105.439 113.006 105.26 112.968Z" fill="#3F3D56"/>
<path d="M169.203 78.5207C163.164 78.8343 157.159 79.3852 151.19 80.1732C149.149 80.4425 147.424 81.2845 147.505 82.5027C147.572 83.5212 149.41 84.5981 151.464 84.3269C157.431 83.5392 163.435 82.9883 169.477 82.6744C174.403 82.4186 174.126 78.265 169.203 78.5207Z" fill="#CCCCCC"/>
<path d="M160.546 83.058C159.894 83.1011 144.575 84.0893 144.435 81.9722C144.295 79.8552 159.611 78.8182 160.263 78.7751C160.915 78.732 176.234 77.7438 176.374 79.8608C176.514 81.978 161.198 83.0149 160.546 83.058ZM145.034 81.9326C145.496 82.5468 151.186 83.0835 160.507 82.4673C169.828 81.8512 175.398 80.57 175.775 79.9004C175.313 79.2864 169.623 78.7496 160.302 79.3658C150.981 79.982 145.411 81.2631 145.034 81.9326Z" fill="#3F3D56"/>
<path d="M212.823 135.503C216.208 135.184 220.42 134.788 223.514 132.196C224.433 131.396 225.167 130.404 225.662 129.289C226.158 128.175 226.405 126.966 226.384 125.747C226.326 123.866 225.541 122.272 224.171 121.261C222.378 119.938 219.876 119.765 217.256 120.727L218.686 100.299L216.636 100.155L214.954 124.171L216.6 123.279C218.508 122.246 221.178 121.608 222.951 122.916C223.387 123.26 223.739 123.7 223.978 124.202C224.217 124.704 224.337 125.254 224.329 125.81C224.339 126.718 224.154 127.617 223.786 128.447C223.417 129.277 222.874 130.018 222.194 130.619C219.786 132.635 216.438 133.096 212.63 133.455L212.823 135.503Z" fill="#3F3D56"/>
<path d="M205.028 102.956L193.98 103.686L194.116 105.739L205.164 105.008L205.028 102.956Z" fill="#3F3D56"/>
<path d="M115.321 100.876C114.829 100.907 114.342 100.762 113.948 100.466C113.553 100.171 113.276 99.744 113.168 99.2631L112.209 95.0011C112.088 94.465 112.186 93.9032 112.479 93.439C112.773 92.9747 113.238 92.6459 113.774 92.5247L149.272 84.5293C149.808 84.4093 150.369 84.5068 150.833 84.8005C151.297 85.0941 151.626 85.5599 151.747 86.0957L152.706 90.3578C152.826 90.8939 152.729 91.4557 152.435 91.9199C152.142 92.3842 151.676 92.713 151.141 92.8342L115.642 100.829C115.537 100.853 115.429 100.869 115.321 100.876Z" fill="#2F2E41"/>
<path d="M97.1394 51.3884C105.453 50.8388 111.746 43.6496 111.196 35.3308C110.646 27.012 103.461 20.7139 95.1479 21.2634C86.8346 21.813 80.541 29.0022 81.091 37.321C81.6409 45.6398 88.826 51.938 97.1394 51.3884Z" fill="#09BC8A"/>
<path d="M104.924 39.6599C105.394 39.4597 105.816 39.1611 106.161 38.7843C106.388 38.5169 106.554 38.203 106.647 37.8646C106.74 37.5263 106.758 37.1717 106.7 36.8256C106.663 36.5786 106.569 36.3435 106.427 36.1387C106.284 35.9339 106.096 35.7648 105.877 35.6448C105.31 35.3455 104.591 35.4058 103.887 35.791L103.414 29.9169L102.824 29.9643L103.38 36.8699L103.81 36.5453C104.308 36.1695 105.04 35.8725 105.601 36.1684C105.74 36.2473 105.859 36.3573 105.948 36.4898C106.038 36.6222 106.096 36.7736 106.118 36.932C106.16 37.1899 106.146 37.4539 106.077 37.7059C106.007 37.9578 105.885 38.192 105.717 38.3923C105.119 39.0699 104.186 39.3454 103.118 39.6116L103.261 40.1859C103.83 40.0606 104.387 39.8846 104.924 39.6599Z" fill="#2F2E41"/>
<path d="M109.465 29.1022L106.353 29.7864L106.48 30.3645L109.592 29.6803L109.465 29.1022Z" fill="#2F2E41"/>
<path d="M99.6422 31.2616L96.5303 31.9458L96.6573 32.5239L99.7692 31.8397L99.6422 31.2616Z" fill="#2F2E41"/>
<path d="M110.406 100.937C109.864 100.971 109.325 100.84 108.86 100.561C108.395 100.281 108.026 99.8664 107.802 99.3719L95.585 72.2459C94.091 68.9187 93.9769 65.1346 95.2677 61.7236C96.5586 58.3126 99.1489 55.5534 102.47 54.0513L110.701 50.3403C111.019 50.196 111.363 50.1161 111.712 50.1051C112.061 50.0942 112.409 50.1525 112.736 50.2766C113.061 50.3971 113.36 50.5813 113.613 50.8185C113.867 51.0557 114.071 51.341 114.213 51.6579L135.839 86.7094C135.986 87.0287 136.068 87.3738 136.08 87.7249C136.093 88.0759 136.036 88.426 135.913 88.755C135.79 89.084 135.603 89.3854 135.363 89.6419C135.123 89.8983 134.835 90.1047 134.515 90.2492L111.323 100.706C111.034 100.837 110.723 100.915 110.406 100.937Z" fill="#2F2E41"/>
<path d="M108.204 51.4662L128.967 75.7304L114.39 51.3264C114.264 51.0387 114.082 50.7787 113.856 50.5613C113.629 50.3438 113.362 50.1731 113.069 50.059C112.777 49.9448 112.465 49.8894 112.151 49.896C111.837 49.9025 111.528 49.9708 111.24 50.0971L108.204 51.4662Z" fill="#E6E6E6"/>
<path d="M139.689 68.8544L105.485 68.9106C104.945 68.9115 104.411 68.8061 103.913 68.6005C103.414 68.3949 102.961 68.093 102.579 67.7122C102.198 67.3313 101.894 66.879 101.687 66.3809C101.48 65.8828 101.373 65.3488 101.372 64.8093C101.371 64.2698 101.476 63.7354 101.682 63.2366C101.887 62.7379 102.189 62.2845 102.569 61.9024C102.95 61.5203 103.402 61.217 103.9 61.0097C104.397 60.8024 104.931 60.6953 105.47 60.6944L139.674 60.638C139.927 60.6375 140.177 60.6869 140.411 60.7832C140.644 60.8794 140.856 61.0208 141.035 61.1992C141.214 61.3775 141.356 61.5894 141.453 61.8226C141.55 62.0559 141.6 62.306 141.601 62.5586L141.608 66.9273C141.609 67.4375 141.407 67.9272 141.047 68.2886C140.687 68.65 140.199 68.8535 139.689 68.8544Z" fill="#09BC8A"/>
<path d="M130.681 70.8634C130.636 70.8663 130.591 70.8679 130.545 70.868L102.459 70.9142C102.187 70.9147 101.918 70.8616 101.666 70.7579C101.415 70.6542 101.186 70.502 100.994 70.3099C100.801 70.1178 100.648 69.8897 100.544 69.6385C100.439 69.3873 100.385 69.1179 100.385 68.8459L100.372 61.3839C100.371 61.1119 100.424 60.8423 100.528 60.5908C100.632 60.3392 100.784 60.1106 100.976 59.9179C101.168 59.7252 101.396 59.5722 101.647 59.4677C101.898 59.3632 102.167 59.3092 102.439 59.3087L130.525 59.2624C131.074 59.2621 131.601 59.4797 131.99 59.8674C132.379 60.2552 132.598 60.7815 132.599 61.3307L132.612 68.7928C132.612 69.1927 132.497 69.584 132.28 69.9199C132.063 70.2558 131.754 70.5219 131.39 70.6863C131.166 70.7874 130.926 70.8473 130.681 70.8634Z" fill="#2F2E41"/>
<path d="M95.3093 26.3211C97.1768 24.486 99.997 25.8308 102.25 25.4138C104.406 25.0148 105.993 22.9512 106.294 20.8505C106.646 18.3996 105.232 16.0609 103.284 14.6761C101.151 13.1593 98.4353 12.8629 95.9118 13.3365C93.0195 13.8792 90.4432 15.4153 88.1595 17.2183C85.9519 18.9094 83.9473 20.8505 82.1857 23.0028C80.6122 24.9909 79.3219 27.322 79.0295 29.8767C78.7638 32.1984 79.2505 34.7195 80.7343 36.5733C81.5188 37.5218 82.5344 38.2521 83.683 38.6936C84.8829 39.1878 86.1496 39.5141 87.3181 40.0853C89.085 40.949 90.8734 42.8637 90.4794 45.0054C90.3955 45.4731 90.1979 45.913 89.9042 46.2863C89.5512 46.7346 88.8271 46.2209 89.181 45.7714C89.8026 44.9819 89.7105 43.9898 89.2941 43.1238C88.8028 42.1494 87.9952 41.3708 87.0039 40.9157C85.7808 40.3194 84.4521 39.9892 83.2036 39.4549C82.0103 38.9703 80.9517 38.2044 80.1178 37.2224C78.5392 35.3076 77.9338 32.7197 78.1017 30.2777C78.2833 27.635 79.4709 25.166 81.0249 23.06C82.7161 20.7681 84.8484 18.7818 87.0416 16.979C89.3949 15.0445 92.0253 13.3667 95.0097 12.6255C97.5967 11.983 100.454 12.0844 102.837 13.3607C105.062 14.5521 106.853 16.7361 107.185 19.2868C107.32 20.4484 107.144 21.6251 106.674 22.6959C106.205 23.7667 105.458 24.6928 104.512 25.379C103.539 26.0527 102.379 26.4036 101.196 26.3823C99.9325 26.3849 98.648 26.0827 97.3892 26.2734C96.8187 26.3461 96.2874 26.6028 95.8759 27.0048C95.4679 27.4058 94.9046 26.7188 95.3093 26.3211Z" fill="#2F2E41"/>
<path d="M279.27 177.378L61.3618 191.783C61.2687 191.789 61.1771 191.758 61.1071 191.696C61.037 191.635 60.9942 191.548 60.9881 191.455C60.9819 191.362 61.0129 191.27 61.0743 191.2C61.1356 191.129 61.2222 191.086 61.3153 191.08L279.224 176.674C279.317 176.668 279.409 176.699 279.479 176.761C279.55 176.823 279.592 176.91 279.599 177.003C279.605 177.096 279.574 177.188 279.512 177.258C279.451 177.329 279.364 177.372 279.27 177.378Z" fill="#3F3D56"/>
</g>
</g>
<defs>
<filter id="filter0_d_167_1559" x="0.378906" y="0.983154" width="294.605" height="211.69" filterUnits="userSpaceOnUse" color-interpolation-filters="sRGB">
<feFlood flood-opacity="0" result="BackgroundImageFix"/>
<feColorMatrix in="SourceAlpha" type="matrix" values="0 0 0 0 0 0 0 0 0 0 0 0 0 0 0 0 0 0 127 0" result="hardAlpha"/>
<feOffset dy="4"/>
<feGaussianBlur stdDeviation="2"/>
<feComposite in2="hardAlpha" operator="out"/>
<feColorMatrix type="matrix" values="0 0 0 0 0 0 0 0 0 0 0 0 0 0 0 0 0 0 0.25 0"/>
<feBlend mode="normal" in2="BackgroundImageFix" result="effect1_dropShadow_167_1559"/>
<feBlend mode="normal" in="SourceGraphic" in2="effect1_dropShadow_167_1559" result="shape"/>
</filter>
<clipPath id="clip0_167_1559">
<rect width="224.656" height="177.016" fill="white" transform="matrix(0.990699 -0.136072 0.361771 0.932267 4.37891 39.6477)"/>
</clipPath>
<clipPath id="clip1_167_1559">
<rect width="219.089" height="176.756" fill="white" transform="translate(49.3511 15.4351) rotate(-3.78218)"/>
</clipPath>
</defs>
</svg>
