<svg width="29" height="19" viewBox="0 0 29 19" fill="none" xmlns="http://www.w3.org/2000/svg">
<path d="M7.8092 8.444L15.3492 19H0.789199V0.903999H15.3492L7.8092 8.444ZM7.1332 9.12L1.7512 14.502V18.038H13.5032L7.1332 9.12ZM22.8433 19H5.78729L14.3153 0.513999L22.8433 19ZM7.29529 18.038H21.3353L14.3153 2.802L7.29529 18.038ZM22.3554 0.903999C23.4994 0.903999 24.4094 1.07733 25.0854 1.424C25.9001 1.84 26.5241 2.412 26.9574 3.14C27.4081 3.868 27.6334 4.68267 27.6334 5.584C27.6334 6.43333 27.4081 7.222 26.9574 7.95C26.5067 8.66067 25.8914 9.224 25.1114 9.64C26.0474 9.96933 26.8361 10.5413 27.4774 11.356C28.1187 12.1707 28.4394 13.0893 28.4394 14.112C28.4394 15.0133 28.2054 15.8453 27.7374 16.608C27.2867 17.3533 26.6801 17.9427 25.9174 18.376C25.5361 18.584 25.1114 18.74 24.6434 18.844C24.1754 18.948 23.5514 19 22.7714 19H14.7634V0.903999H22.3554Z" fill="white"/>
</svg>
