<svg width="250" height="38" viewBox="0 0 250 38" fill="none" xmlns="http://www.w3.org/2000/svg">
<path d="M13.6484 15.971L28.1484 36.271H0.148438V1.47099H28.1484L13.6484 15.971ZM12.3484 17.271L1.99844 27.621V34.421H24.5984L12.3484 17.271ZM49.2102 1.47099H51.1602L65.4602 36.271H63.4602L58.7602 24.771H41.6102L36.8602 36.271H34.9102L49.2102 1.47099ZM42.3602 22.971H58.0102L50.1602 3.871L42.3602 22.971ZM76.0219 1.47099V25.021L99.6219 1.47099H102.222L87.6719 15.971L102.172 36.271H99.9719L86.3719 17.271L76.0219 27.621V36.271H74.1719V1.47099H76.0219ZM112.184 1.47099H136.684V3.32099H114.034V17.421H133.734V19.271H114.034V34.421H136.684V36.271H112.184V1.47099ZM172.495 1.47099V3.32099H162.095V34.421H172.495V36.271H149.945V34.421H160.295V3.32099H149.945V1.47099H172.495ZM205.207 2.47099C206.774 3.27099 207.974 4.371 208.807 5.771C209.674 7.171 210.107 8.73766 210.107 10.471C210.107 12.1043 209.674 13.621 208.807 15.021C207.974 16.3877 206.807 17.471 205.307 18.271C207.074 18.871 208.54 19.971 209.707 21.571C210.874 23.171 211.457 24.9377 211.457 26.871C211.457 28.6043 211.024 30.2043 210.157 31.671C209.29 33.1377 208.14 34.271 206.707 35.071C205.974 35.471 205.157 35.771 204.257 35.971C203.357 36.171 202.157 36.271 200.657 36.271H186.057V1.47099H199.957C202.157 1.47099 203.907 1.80433 205.207 2.47099ZM204.407 16.821C205.607 16.221 206.557 15.3543 207.257 14.221C207.957 13.0877 208.307 11.8377 208.307 10.471C208.307 8.93766 207.907 7.60433 207.107 6.471C206.307 5.30433 205.29 4.45433 204.057 3.921C203.124 3.52099 201.557 3.32099 199.357 3.32099H187.857V17.621H200.257C201.99 17.621 203.374 17.3543 204.407 16.821ZM205.607 33.671C206.84 33.0377 207.824 32.121 208.557 30.921C209.29 29.6877 209.657 28.3543 209.657 26.921C209.657 25.421 209.274 24.071 208.507 22.871C207.74 21.6377 206.707 20.721 205.407 20.121C204.407 19.6543 203.057 19.421 201.357 19.421H187.857V34.471H200.707C201.974 34.471 202.974 34.4043 203.707 34.271C204.44 34.1377 205.074 33.9377 205.607 33.671ZM235.219 0.720995C237.819 0.720995 240.219 1.37099 242.419 2.67099C244.619 3.93766 246.352 5.671 247.619 7.871C248.919 10.071 249.569 12.471 249.569 15.071V22.671C249.569 25.271 248.919 27.671 247.619 29.871C246.352 32.071 244.619 33.821 242.419 35.121C240.219 36.3877 237.819 37.021 235.219 37.021C232.619 37.021 230.219 36.3877 228.019 35.121C225.819 33.821 224.069 32.071 222.769 29.871C221.502 27.671 220.869 25.271 220.869 22.671V15.071C220.869 12.471 221.502 10.071 222.769 7.871C224.069 5.671 225.819 3.93766 228.019 2.67099C230.219 1.37099 232.619 0.720995 235.219 0.720995ZM222.719 22.671C222.719 24.9377 223.269 27.0377 224.369 28.971C225.502 30.871 227.019 32.3877 228.919 33.521C230.852 34.621 232.952 35.171 235.219 35.171C237.485 35.171 239.569 34.621 241.469 33.521C243.402 32.3877 244.919 30.871 246.019 28.971C247.152 27.0377 247.719 24.9377 247.719 22.671V15.071C247.719 12.8043 247.152 10.721 246.019 8.82099C244.919 6.88766 243.402 5.37099 241.469 4.27099C239.569 3.13766 237.485 2.57099 235.219 2.57099C232.952 2.57099 230.852 3.13766 228.919 4.27099C227.019 5.37099 225.502 6.88766 224.369 8.82099C223.269 10.721 222.719 12.8043 222.719 15.071V22.671Z" fill="white"/>
</svg>
