<svg width="405" height="338" viewBox="0 0 405 338" fill="none" xmlns="http://www.w3.org/2000/svg">
<g clip-path="url(#clip0_334_1471)">
<path d="M302.951 184.024C302.951 186.233 301.16 188.024 298.951 188.024H11.5C9.29085 188.024 7.5 186.233 7.5 184.024V17.2593C7.50208 15.4672 8.21659 13.7491 9.48677 12.4819C10.7569 11.2148 12.4791 10.502 14.2753 10.5H296.176C297.972 10.502 299.694 11.2148 300.964 12.482C302.235 13.7491 302.949 15.4672 302.951 17.2593V184.024Z" fill="#3F3D56"/>
<path d="M285.305 175.63H25.1461C23.7613 175.628 22.4337 175.079 21.4544 174.102C20.4752 173.125 19.9244 171.8 19.9229 170.419V28.1051C19.9244 26.7234 20.4752 25.3989 21.4544 24.4219C22.4336 23.4449 23.7613 22.8954 25.1461 22.8938H285.305C286.69 22.8954 288.017 23.4449 288.997 24.4219C289.976 25.3989 290.527 26.7234 290.528 28.1051V170.419C290.527 171.8 289.976 173.125 288.997 174.102C288.017 175.079 286.69 175.628 285.305 175.63Z" fill="white"/>
<path d="M260.863 157.947H49.586C49.4106 157.947 49.2425 157.878 49.1185 157.754C48.9945 157.63 48.9248 157.463 48.9248 157.288V56.2582C48.9248 56.0833 48.9945 55.9155 49.1185 55.7918C49.2425 55.6681 49.4106 55.5986 49.586 55.5986C49.7614 55.5986 49.9295 55.6681 50.0535 55.7918C50.1775 55.9155 50.2472 56.0833 50.2472 56.2582V156.628H260.863C261.038 156.628 261.207 156.697 261.331 156.821C261.455 156.945 261.524 157.113 261.524 157.288C261.524 157.463 261.455 157.63 261.331 157.754C261.207 157.878 261.038 157.947 260.863 157.947Z" fill="#3F3D56"/>
<path d="M94.7281 150.691H75.5116C74.9913 150.69 74.4924 150.484 74.1244 150.117C73.7565 149.75 73.5495 149.252 73.5488 148.733V122.305C73.5495 121.785 73.7565 121.288 74.1244 120.921C74.4924 120.554 74.9913 120.347 75.5116 120.347H94.7281C95.2484 120.347 95.7473 120.554 96.1153 120.921C96.4832 121.288 96.6902 121.785 96.6909 122.305V148.733C96.6902 149.252 96.4832 149.75 96.1153 150.117C95.7473 150.484 95.2484 150.69 94.7281 150.691Z" fill="#AB2921" fill-opacity="0.76"/>
<path d="M129.772 150.691H110.556C110.035 150.69 109.536 150.484 109.168 150.117C108.8 149.75 108.593 149.252 108.593 148.733V97.2375C108.593 96.7183 108.8 96.2206 109.168 95.8535C109.536 95.4865 110.035 95.28 110.556 95.2794H129.772C130.292 95.28 130.791 95.4865 131.159 95.8535C131.527 96.2206 131.734 96.7183 131.735 97.2375V148.733C131.734 149.252 131.527 149.75 131.159 150.117C130.791 150.484 130.292 150.69 129.772 150.691Z" fill="#20A29F"/>
<path d="M164.815 150.691H145.599C145.078 150.69 144.579 150.484 144.211 150.117C143.843 149.75 143.636 149.252 143.636 148.733V122.305C143.636 121.785 143.843 121.288 144.211 120.921C144.579 120.554 145.078 120.347 145.599 120.347H164.815C165.335 120.347 165.834 120.554 166.202 120.921C166.57 121.288 166.777 121.785 166.778 122.305V148.733C166.777 149.252 166.57 149.75 166.202 150.117C165.834 150.484 165.335 150.69 164.815 150.691Z" fill="#AB2921" fill-opacity="0.76"/>
<path d="M199.859 150.691H180.642C180.134 150.702 179.642 150.511 179.274 150.161C178.906 149.811 178.692 149.329 178.68 148.822V87.2539C178.692 86.7466 178.906 86.265 179.274 85.9146C179.642 85.5642 180.134 85.3736 180.642 85.3845H199.859C200.367 85.3736 200.86 85.5642 201.227 85.9146C201.595 86.265 201.809 86.7466 201.822 87.2539V148.822C201.809 149.329 201.595 149.811 201.227 150.161C200.86 150.511 200.367 150.702 199.859 150.691Z" fill="#20A29F"/>
<path d="M234.902 150.691H215.685C215.165 150.69 214.666 150.484 214.298 150.117C213.93 149.75 213.723 149.252 213.723 148.733V69.5317C213.723 69.0125 213.93 68.5148 214.298 68.1477C214.666 67.7807 215.165 67.5742 215.685 67.5736H234.902C235.422 67.5742 235.921 67.7807 236.289 68.1477C236.657 68.5148 236.864 69.0125 236.865 69.5317V148.733C236.864 149.252 236.657 149.75 236.289 150.117C235.921 150.484 235.422 150.69 234.902 150.691Z" fill="#20A29F"/>
<path d="M85.1195 112.431C87.3106 112.431 89.0868 110.659 89.0868 108.473C89.0868 106.287 87.3106 104.515 85.1195 104.515C82.9285 104.515 81.1523 106.287 81.1523 108.473C81.1523 110.659 82.9285 112.431 85.1195 112.431Z" fill="#3F3D56"/>
<path d="M120.163 86.7038C122.354 86.7038 124.13 84.9318 124.13 82.7459C124.13 80.5599 122.354 78.7879 120.163 78.7879C117.971 78.7879 116.195 80.5599 116.195 82.7459C116.195 84.9318 117.971 86.7038 120.163 86.7038Z" fill="#3F3D56"/>
<path d="M155.207 112.431C157.398 112.431 159.175 110.659 159.175 108.473C159.175 106.287 157.398 104.515 155.207 104.515C153.016 104.515 151.24 106.287 151.24 108.473C151.24 110.659 153.016 112.431 155.207 112.431Z" fill="#3F3D56"/>
<path d="M190.25 74.1702C192.441 74.1702 194.218 72.3982 194.218 70.2123C194.218 68.0263 192.441 66.2543 190.25 66.2543C188.059 66.2543 186.283 68.0263 186.283 70.2123C186.283 72.3982 188.059 74.1702 190.25 74.1702Z" fill="#3F3D56"/>
<path d="M225.294 59.6577C227.485 59.6577 229.262 57.8857 229.262 55.6997C229.262 53.5138 227.485 51.7418 225.294 51.7418C223.103 51.7418 221.327 53.5138 221.327 55.6997C221.327 57.8857 223.103 59.6577 225.294 59.6577Z" fill="#3F3D56"/>
<path d="M155.29 109.359L120.163 83.11L85.5161 109L84.7227 107.945L120.163 81.4615L155.123 107.586L189.864 69.6569L190.003 69.6001L225.047 55.5137L225.541 56.7374L190.637 70.7677L155.29 109.359Z" fill="#3F3D56"/>
<path d="M344.329 68.2406C356.35 68.2406 366.095 58.4956 366.095 46.4745C366.095 34.4534 356.35 24.7083 344.329 24.7083C332.308 24.7083 322.562 34.4534 322.562 46.4745C322.562 58.4956 332.308 68.2406 344.329 68.2406Z" fill="#FFB8B8"/>
<path d="M346.586 304.943L336.298 308.436L317.925 270.419L333.108 265.262L346.586 304.943Z" fill="#FFB8B8"/>
<path d="M327.953 307.993L347.793 301.254L352.036 313.746L319.704 324.728C319.147 323.088 318.918 321.354 319.031 319.625C319.144 317.896 319.597 316.206 320.363 314.652C321.128 313.098 322.193 311.71 323.495 310.568C324.798 309.425 326.312 308.551 327.953 307.993Z" fill="#2F2E41"/>
<path d="M369.83 326.418L358.98 326.963L351.712 285.368L367.727 284.563L369.83 326.418Z" fill="#FFB8B8"/>
<path d="M351.074 324.252L372.001 323.2L372.663 336.376L338.56 338.09C338.473 336.36 338.727 334.629 339.309 332.997C339.891 331.366 340.789 329.864 341.951 328.579C343.113 327.294 344.516 326.251 346.082 325.508C347.647 324.766 349.343 324.339 351.074 324.252Z" fill="#2F2E41"/>
<path d="M232.246 64.971C232.959 66.0613 233.902 66.9821 235.009 67.6685C236.117 68.3548 237.361 68.7899 238.655 68.9433C239.949 69.0967 241.26 68.9646 242.497 68.5562C243.734 68.1478 244.867 67.4732 245.815 66.5797L273.888 81.2355L272.215 64.8642L245.813 53.4568C244.206 51.9633 242.108 51.1111 239.915 51.0615C237.722 51.0119 235.587 51.7684 233.915 53.1877C232.243 54.607 231.149 56.5904 230.841 58.7621C230.534 60.9339 231.033 63.143 232.246 64.971Z" fill="#FFB8B8"/>
<path d="M368.817 313.877C368.677 313.876 368.537 313.869 368.397 313.854L353.668 312.295C352.763 312.203 351.917 311.803 351.272 311.162C350.626 310.521 350.221 309.678 350.125 308.773L338.742 207.294L330.505 235.063L345.861 289.638C346.018 290.194 346.052 290.777 345.961 291.348C345.87 291.918 345.656 292.461 345.334 292.941C345.012 293.42 344.59 293.824 344.097 294.124C343.604 294.425 343.052 294.614 342.478 294.68L327.548 296.397C326.597 296.502 325.64 296.263 324.849 295.724C324.059 295.186 323.487 294.382 323.238 293.458L306.924 232.042C306.789 231.537 306.756 231.011 306.825 230.493L314.158 175.372L368.849 179.757L372.803 309.767C372.82 310.3 372.729 310.832 372.536 311.33C372.343 311.828 372.052 312.282 371.68 312.665C371.308 313.048 370.863 313.353 370.371 313.561C369.88 313.769 369.351 313.877 368.817 313.877Z" fill="#2F2E41"/>
<path d="M349.912 189.183C331.589 189.183 310.844 182.103 309.588 181.668L309.225 181.542L329.895 75.4776L330.275 75.4931C338.467 75.8255 360.822 75.996 361.047 75.9977L361.448 76.0007L370.065 169.601L371.605 183.291L371.416 183.444C366.145 187.706 358.281 189.183 349.912 189.183Z" fill="#20A29F"/>
<path d="M316.81 180.017L303.881 174.809L310.471 95.1C310.629 93.1349 311.227 91.2305 312.22 89.5274C313.213 87.8243 314.576 86.3659 316.208 85.26L323.012 80.6299C322.819 79.9753 322.785 79.2843 322.911 78.6138C323.037 77.9432 323.321 77.3122 323.738 76.7725C324.156 76.2328 324.695 75.7999 325.313 75.5092C325.93 75.2185 326.608 75.0783 327.29 75.1003L329.238 75.163C329.609 74.9133 330.046 74.7813 330.492 74.7845C330.939 74.7877 331.374 74.9258 331.741 75.1808C332.108 75.4358 332.389 75.7957 332.548 76.2133C332.706 76.6309 332.735 77.0867 332.63 77.5209L332.202 85.9658L316.81 180.017Z" fill="#2F2E41"/>
<path d="M252.961 73.3009L257.82 57.1187L290.555 71.1075L321.508 83.675C322.638 84.055 323.667 84.6853 324.519 85.519C325.371 86.3527 326.023 87.3681 326.427 88.4894C326.831 89.6106 326.977 90.8087 326.853 91.9941C326.729 93.1795 326.339 94.3215 325.711 95.3348C324.735 96.9135 323.235 98.0983 321.473 98.6816C319.711 99.2649 317.8 99.2094 316.075 98.525L282.458 85.2176L252.961 73.3009Z" fill="#2F2E41"/>
<path d="M337.015 181.236L336.9 180.88C336.822 180.637 329.214 156.234 341.944 127.113L348.328 95.3636L353.783 75.4284C353.885 75.0722 354.069 74.7446 354.32 74.4719C354.571 74.1991 354.882 73.9887 355.228 73.8572C355.636 73.7163 356.075 73.6983 356.493 73.8055C356.91 73.9128 357.287 74.1405 357.576 74.4603C361.378 73.3442 365.466 73.7529 368.972 75.5999L376.633 79.6355C378.336 80.5329 379.694 81.9701 380.493 83.7218C381.292 85.4736 381.487 87.441 381.048 89.3156L370.577 134.001L375.667 175.738L337.015 181.236Z" fill="#2F2E41"/>
<path d="M348.164 164.031C349.46 164.172 350.77 164.027 352.003 163.606C353.236 163.186 354.362 162.5 355.301 161.597C356.241 160.695 356.971 159.597 357.44 158.382C357.909 157.166 358.106 155.863 358.017 154.563L381.729 136.998L373.44 133.068L347.872 146.239C345.698 146.533 343.708 147.615 342.279 149.278C340.849 150.942 340.079 153.072 340.115 155.265C340.152 157.458 340.991 159.562 342.474 161.178C343.958 162.793 345.982 163.809 348.164 164.031Z" fill="#FFB8B8"/>
<path d="M363.03 156.169L355.021 141.219L374.772 128.22L365.134 93.6495C364.748 92.2654 364.652 90.8166 364.851 89.3935C365.05 87.9704 365.54 86.6036 366.291 85.3785C367.042 84.1534 368.037 83.0962 369.215 82.2731C370.393 81.45 371.728 80.8785 373.136 80.5945C375.626 80.0984 378.21 80.5224 380.411 81.7878C382.611 83.0532 384.277 85.0741 385.1 87.4751L398.105 125.702C398.373 126.49 398.388 127.341 398.148 128.138C397.908 128.935 397.424 129.636 396.765 130.144L363.03 156.169Z" fill="#2F2E41"/>
<path d="M345.869 51.0911C343.26 51.4306 341.291 48.761 340.379 46.2932C339.466 43.8254 338.77 40.9525 336.502 39.6194C333.402 37.7982 329.437 39.9886 325.893 39.3877C321.89 38.7092 319.288 34.4673 319.084 30.4128C318.88 26.3583 320.493 22.4588 322.077 18.7206L322.629 23.3663C322.555 21.7917 322.887 20.2245 323.592 18.8146C324.296 17.4047 325.351 16.1993 326.655 15.3135L325.943 22.1304C326.094 21.1899 326.43 20.2886 326.931 19.4783C327.432 18.6679 328.088 17.9644 328.861 17.4081C329.635 16.8519 330.51 16.4538 331.438 16.2368C332.365 16.0198 333.327 15.9882 334.267 16.1436L334.154 20.2054C338.777 19.6557 343.441 19.1052 348.077 19.524C352.714 19.9428 357.383 21.4098 360.897 24.4633C366.153 29.031 368.073 36.5521 367.429 43.486C366.784 50.42 363.922 56.934 360.939 63.2265C360.188 64.8097 359.15 66.5962 357.409 66.7979C355.846 66.9791 354.415 65.6718 353.929 64.1745C353.554 62.6381 353.569 61.0326 353.971 59.5033C354.411 57.1661 354.965 54.7772 354.551 52.4352C354.138 50.0932 352.453 47.7789 350.092 47.4919C347.732 47.2049 345.316 49.9034 346.451 51.9933L345.869 51.0911Z" fill="#2F2E41"/>
</g>
<defs>
<clipPath id="clip0_334_1471">
<rect width="405" height="338" fill="white"/>
</clipPath>
</defs>
</svg>
